<?xml version="1.0" encoding="utf-8"?>
<!-- Generator: Adobe Illustrator 18.1.1, SVG Export Plug-In . SVG Version: 6.00 Build 0)  -->
<!DOCTYPE svg PUBLIC "-//W3C//DTD SVG 1.1//EN" "http://www.w3.org/Graphics/SVG/1.1/DTD/svg11.dtd">
<svg version="1.1" id="Layer_1" xmlns="http://www.w3.org/2000/svg" xmlns:xlink="http://www.w3.org/1999/xlink" x="0px" y="0px"
	 viewBox="1885 1556 150 300" enable-background="new 1885 1556 150 300" xml:space="preserve">
<path fill="#FFC328" d="M1961.7,1739.8l11.3,22.9c0.2,0.2,0.4,0.6,0.8,0.6l25.1,3.6c1,0.2,1.3,1.3,0.6,1.9l-18.1,17.8
	c-0.2,0.2-0.4,0.7-0.2,1l4.4,25.1c0.2,1-0.8,1.7-1.7,1.3l-22.5-12c-0.2-0.2-0.7-0.2-1.1,0l-22.5,12c-0.8,0.4-1.8-0.2-1.7-1.3
	l4.4-25.1c0-0.4,0-0.7-0.2-1l-18.1-17.8c-0.7-0.7-0.2-1.9,0.6-1.9l25.1-3.6c0.4,0,0.7-0.2,0.8-0.6l11.3-22.9
	C1960.2,1738.9,1961.3,1738.9,1961.7,1739.8z"/>
<path fill="none" stroke="#000000" stroke-miterlimit="10" d="M1961.7,1589.9l11.1,22.6c0.2,0.2,0.4,0.6,0.8,0.6l24.8,3.6
	c1,0.2,1.3,1.3,0.6,1.9l-17.8,17.5c-0.2,0.2-0.4,0.7-0.2,1l4.3,24.8c0.2,1-0.8,1.7-1.7,1.3l-22.1-11.8c-0.2-0.2-0.7-0.2-1.1,0
	l-22.1,11.8c-0.8,0.4-1.8-0.2-1.7-1.3l4.3-24.8c0-0.4,0-0.7-0.2-1l-17.8-17.5c-0.7-0.7-0.2-1.8,0.6-1.9l24.8-3.6
	c0.4,0,0.7-0.2,0.8-0.6l11.1-22.6C1960.2,1589,1961.3,1589,1961.7,1589.9z"/>
</svg>
