<?xml version="1.0" encoding="utf-8"?>
<!-- Generator: Adobe Illustrator 18.1.1, SVG Export Plug-In . SVG Version: 6.00 Build 0)  -->
<!DOCTYPE svg PUBLIC "-//W3C//DTD SVG 1.1//EN" "http://www.w3.org/Graphics/SVG/1.1/DTD/svg11.dtd">
<svg version="1.1" id="Layer_1" xmlns="http://www.w3.org/2000/svg" xmlns:xlink="http://www.w3.org/1999/xlink" x="0px" y="0px"
	 viewBox="734.331 985.403 280 560" enable-background="new 734.331 985.403 280 560" xml:space="preserve">
<path fill="none" stroke="#000000" stroke-miterlimit="10" d="M876.461,1029.024l25.11,50.495c0.309,0.62,0.93,1.24,1.859,1.24
	l55.799,8.054c2.17,0.309,2.791,2.789,1.241,4.338l-40.298,39.342c-0.62,0.62-0.93,1.549-0.62,2.169l9.609,55.451
	c0.309,2.169-1.859,3.718-3.72,2.789l-49.909-26.331c-0.62-0.309-1.55-0.309-2.48,0l-49.909,26.331
	c-1.859,0.929-4.029-0.62-3.72-2.789l9.609-55.451c0-0.929,0-1.549-0.62-2.169l-40.298-39.342c-1.55-1.549-0.62-4.027,1.241-4.338
	l55.799-8.054c0.93,0,1.55-0.62,1.859-1.24l25.11-50.495C873.05,1027.166,875.53,1027.166,876.461,1029.024z"/>
<path fill="#FFC328" d="M876.461,1308.969l25.11,50.529c0.309,0.62,0.93,1.241,1.859,1.241l55.799,8.061
	c2.17,0.309,2.791,2.791,1.241,4.34l-40.298,39.369c-0.62,0.62-0.93,1.55-0.62,2.17l9.609,55.488c0.309,2.17-1.859,3.72-3.72,2.791
	l-49.909-26.349c-0.62-0.309-1.55-0.309-2.48,0l-49.909,26.349c-1.859,0.93-4.029-0.62-3.72-2.791l9.609-55.488
	c0-0.93,0-1.55-0.62-2.17l-40.298-39.369c-1.55-1.55-0.62-4.029,1.241-4.34l55.799-8.061c0.93,0,1.55-0.62,1.859-1.241l25.11-50.529
	C873.05,1307.108,875.53,1307.108,876.461,1308.969z"/>
</svg>
