<?xml version="1.0" encoding="utf-8"?>
<!-- Generator: Adobe Illustrator 18.1.1, SVG Export Plug-In . SVG Version: 6.00 Build 0)  -->
<!DOCTYPE svg PUBLIC "-//W3C//DTD SVG 1.1//EN" "http://www.w3.org/Graphics/SVG/1.1/DTD/svg11.dtd">
<svg version="1.1" id="Layer_1" xmlns="http://www.w3.org/2000/svg" xmlns:xlink="http://www.w3.org/1999/xlink" x="0px" y="0px"
	 viewBox="1203 1148.5 150 150" enable-background="new 1203 1148.5 150 150" xml:space="preserve">
<path display="none" opacity="0.1" fill="#C9CDCF" d="M1321.8,1223.5c0-2.9-0.2-5.8-0.8-8.7c-0.2-0.6,0.2-1.2,0.6-1.7l8.7-6.2
	c0.6-0.4,0.8-1.4,0.4-2.3l-10.1-17.5c-0.4-0.8-1.4-1-2.1-0.6l-9.7,4.3c-0.6,0.2-1.2,0.2-1.9-0.2c-4.3-3.7-9.3-6.8-14.9-8.7
	c-0.6-0.2-1-0.8-1.2-1.4l-1-10.5c0-0.8-0.8-1.4-1.7-1.4h-20.2c-0.8,0-1.7,0.6-1.7,1.4l-1,10.5c0,0.6-0.6,1.2-1.2,1.4
	c-5.6,1.9-10.5,4.7-14.9,8.7c-0.4,0.4-1.2,0.6-1.9,0.2l-9.7-4.3c-0.8-0.4-1.7,0-2.1,0.6l-10.1,17.5c-0.4,0.8-0.2,1.7,0.4,2.3
	l8.7,6.2c0.6,0.4,0.8,1,0.6,1.7c-0.6,2.9-0.8,5.6-0.8,8.7c0,2.9,0.2,5.8,0.8,8.7c0.2,0.6-0.2,1.2-0.6,1.7l-8.7,6.2
	c-0.6,0.4-0.8,1.4-0.4,2.3l10.1,17.5c0.4,0.8,1.4,1,2.1,0.6l9.7-4.3c0.6-0.2,1.2-0.2,1.9,0.2c4.3,3.7,9.3,6.8,14.9,8.7
	c0.6,0.2,1,0.8,1.2,1.4l1,10.5c0,0.8,0.8,1.4,1.7,1.4h20.2c0.8,0,1.7-0.6,1.7-1.4l1-10.5c0-0.6,0.6-1.2,1.2-1.4
	c5.6-1.9,10.5-4.7,14.9-8.7c0.4-0.4,1.2-0.6,1.9-0.2l9.7,4.3c0.8,0.4,1.7,0,2.1-0.6l10.1-17.5c0.4-0.8,0.2-1.7-0.4-2.3l-8.7-6.2
	c-0.6-0.4-0.8-1-0.6-1.7C1321.6,1229.3,1321.8,1226.4,1321.8,1223.5z M1302.6,1223.5c0,13.8-11.1,24.8-24.8,24.8
	s-24.8-11.1-24.8-24.8c0-13.8,11.1-24.8,24.8-24.8S1302.6,1209.7,1302.6,1223.5z"/>
<path fill="#C9CDCF" d="M1278,1184.5c-21.5,0-39,17.4-39,39s17.4,39,39,39s39-17.4,39-39S1299.5,1184.5,1278,1184.5z M1278,1246.3
	c-12.6,0-22.8-10.2-22.8-22.8s10.2-22.8,22.8-22.8s22.8,10.2,22.8,22.8S1290.6,1246.3,1278,1246.3z"/>
<path fill="#C9CDCF" d="M1278,1173.5L1278,1173.5c-4.3,0-8.1,3-9.2,7.2l-1.6,6.4h21.4l-1.6-6.4
	C1286.1,1176.5,1282.3,1173.5,1278,1173.5z"/>
<path fill="#C9CDCF" d="M1234.7,1198.5L1234.7,1198.5c-2.2,3.8-1.5,8.5,1.6,11.5l4.7,4.5l10.7-18.6l-6.3-1.8
	C1241.3,1193,1236.9,1194.8,1234.7,1198.5z"/>
<path fill="#C9CDCF" d="M1234.7,1248.5L1234.7,1248.5c2.2,3.8,6.6,5.5,10.8,4.3l6.3-1.8l-10.7-18.6l-4.7,4.5
	C1233.2,1240,1232.5,1244.7,1234.7,1248.5z"/>
<path fill="#C9CDCF" d="M1278,1273.5L1278,1273.5c4.3,0,8.1-3,9.2-7.2l1.6-6.4h-21.4l1.6,6.4
	C1269.9,1270.5,1273.7,1273.5,1278,1273.5z"/>
<path fill="#C9CDCF" d="M1321.3,1248.5L1321.3,1248.5c2.2-3.8,1.5-8.5-1.6-11.5l-4.7-4.5l-10.7,18.6l6.3,1.8
	C1314.7,1254,1319.1,1252.2,1321.3,1248.5z"/>
<path fill="#C9CDCF" d="M1321.3,1198.5L1321.3,1198.5c-2.2-3.8-6.6-5.5-10.8-4.3l-6.3,1.8l10.7,18.6l4.7-4.5
	C1322.8,1207,1323.5,1202.3,1321.3,1198.5z"/>
<rect x="1278" y="1198.5" display="none" fill="#C9CDCF" width="25" height="25"/>
</svg>
