<?xml version="1.0" encoding="utf-8"?>
<!-- Generator: Adobe Illustrator 18.1.1, SVG Export Plug-In . SVG Version: 6.00 Build 0)  -->
<!DOCTYPE svg PUBLIC "-//W3C//DTD SVG 1.1//EN" "http://www.w3.org/Graphics/SVG/1.1/DTD/svg11.dtd">
<svg version="1.1" id="Layer_1" xmlns="http://www.w3.org/2000/svg" xmlns:xlink="http://www.w3.org/1999/xlink" x="0px" y="0px"
	 viewBox="0 0 289.93 449.975" enable-background="new 0 0 289.93 449.975" xml:space="preserve">
<path fill="#8B94A3" d="M0,205.875v216.84c0,10.68,4.42,20.34,11.49,27.26h277.39c0.58,0,1.05-0.47,1.05-1.05v-243.05H0z"/>
<path fill="#CDDFDE" d="M289.93,54.01V430.7c0-0.59-0.47-1.06-1.05-1.06L11.6,429.65v-0.03c0,0,0.32-0.64,0.7-2.82h269.73v-46.82
	h0.9c0.58,0,1.05-0.47,1.05-1.05V52.95h4.9C289.46,52.95,289.93,53.43,289.93,54.01z"/>
<path fill="#B2C9CF" d="M288.88,429.64c0.58,0,1.05,0.47,1.05,1.06c0,0.58-0.47,1.05-1.05,1.05H11.49C4.42,424.83,0,415.17,0,404.49
	c0-10.68,4.41-20.02,11.49-26.94l271.44,0.32c0.58,0,1.05,0.47,1.05,1.06c0,0.58-0.47,1.05-1.05,1.05h-0.9h-3.95L11.43,379.9
	c-0.04,0.05-0.08,0.09-0.12,0.14C5.57,386.66,2,395.01,2,404.49c0,9.65,3.6,18.45,9.5,25.16h0.1L288.88,429.64z"/>
<path fill="#EBF5FF" d="M283.98,52.95v325.98c0-0.59-0.47-1.06-1.05-1.06l-271.44-0.32V0l271.44,0.18c0.58,0,1.05,0.47,1.05,1.05
	V52.95z"/>
<path fill="#FFFFFF" d="M282.03,379.98v46.82c0,0-5.95-10.36-5.95-23.26s2-23.26,2-23.26v-0.3H282.03z"/>
<path fill="#EDEDE2" d="M282.03,426.8H12.3c0.55-3.15,1.22-9.52,1.22-21.85c0-20.87-1.92-24.67-1.92-24.67l-0.29-0.24
	c0.04-0.05,0.08-0.09,0.12-0.14l266.65,0.08v0.3c0,0-2,10.36-2,23.26S282.03,426.8,282.03,426.8z"/>
<path fill="#5A5E5D" d="M11.6,380.28c0,0,1.92,3.8,1.92,24.67c0,12.33-0.67,18.7-1.22,21.85c-0.38,2.18-0.7,2.82-0.7,2.82v0.03h-0.1
	C5.6,422.94,2,414.14,2,404.49c0-9.48,3.57-17.83,9.31-24.45L11.6,380.28z"/>
<path fill="#8B94A3" d="M11.49,0v377.55C4.41,384.47,0,393.81,0,404.49V26.79C0,16.26,4.44,6.9,11.34,0H11.49z"/>
</svg>
