<?xml version="1.0" encoding="utf-8"?>
<!-- Generator: Adobe Illustrator 18.1.1, SVG Export Plug-In . SVG Version: 6.00 Build 0)  -->
<!DOCTYPE svg PUBLIC "-//W3C//DTD SVG 1.1//EN" "http://www.w3.org/Graphics/SVG/1.1/DTD/svg11.dtd">
<svg version="1.1" xmlns="http://www.w3.org/2000/svg" xmlns:xlink="http://www.w3.org/1999/xlink" x="0px" y="0px"
	 viewBox="0 0 800 320" enable-background="new 0 0 800 320" xml:space="preserve">
<g id="Layer_1">
	<path fill="#C9CDCF" d="M80.949,45.84l10.535,21.347c0.154,0.312,0.452,0.529,0.797,0.579l23.558,3.423
		c0.868,0.126,1.215,1.193,0.587,1.806L99.379,89.611c-0.249,0.243-0.363,0.594-0.304,0.937l4.024,23.462
		c0.148,0.865-0.759,1.524-1.536,1.116l-21.071-11.077c-0.308-0.162-0.677-0.162-0.985,0l-21.071,11.077
		c-0.777,0.408-1.684-0.251-1.536-1.116l4.024-23.462c0.059-0.343-0.055-0.694-0.304-0.937L43.574,72.995
		c-0.628-0.612-0.282-1.679,0.587-1.806l23.558-3.423c0.345-0.05,0.643-0.267,0.797-0.579L79.051,45.84
		C79.439,45.053,80.561,45.053,80.949,45.84z"/>
	<path fill="#C9CDCF" d="M747.886,80.25c0-1.871-0.19-3.696-0.543-5.463c-0.082-0.411,0.075-0.832,0.414-1.078l5.476-3.986
		c0.442-0.322,0.57-0.925,0.297-1.398l-6.437-11.149c-0.273-0.473-0.86-0.664-1.359-0.442l-6.192,2.75
		c-0.383,0.17-0.827,0.095-1.142-0.182c-2.733-2.402-5.937-4.281-9.459-5.473c-0.397-0.134-0.684-0.481-0.728-0.898l-0.713-6.725
		c-0.058-0.544-0.516-0.956-1.063-0.956h-12.874c-0.547,0-1.005,0.412-1.063,0.956l-0.713,6.725
		c-0.044,0.417-0.331,0.763-0.728,0.898c-3.522,1.192-6.726,3.07-9.459,5.473c-0.315,0.277-0.758,0.352-1.142,0.182l-6.192-2.75
		c-0.5-0.222-1.086-0.031-1.359,0.442l-6.437,11.149c-0.273,0.473-0.145,1.077,0.297,1.398l5.476,3.986
		c0.339,0.247,0.496,0.667,0.414,1.078c-0.353,1.767-0.543,3.592-0.543,5.463c0,1.871,0.19,3.696,0.543,5.463
		c0.082,0.411-0.075,0.832-0.414,1.078l-5.476,3.986c-0.442,0.322-0.57,0.925-0.297,1.398l6.437,11.149
		c0.273,0.473,0.86,0.664,1.359,0.442l6.192-2.75c0.383-0.17,0.827-0.095,1.142,0.182c2.732,2.403,5.937,4.281,9.459,5.473
		c0.397,0.134,0.684,0.481,0.728,0.898l0.713,6.725c0.058,0.544,0.516,0.956,1.063,0.956h12.874c0.547,0,1.005-0.412,1.063-0.956
		l0.713-6.725c0.044-0.417,0.331-0.763,0.728-0.898c3.522-1.192,6.726-3.07,9.459-5.473c0.315-0.277,0.758-0.352,1.142-0.182
		l6.192,2.75c0.5,0.222,1.086,0.031,1.359-0.442l6.437-11.149c0.273-0.473,0.145-1.077-0.297-1.398l-5.476-3.986
		c-0.339-0.247-0.496-0.667-0.414-1.078C747.696,83.946,747.886,82.121,747.886,80.25z M735.745,80.25
		c0,8.696-7.049,15.745-15.745,15.745c-8.696,0-15.745-7.049-15.745-15.745c0-8.696,7.049-15.745,15.745-15.745
		C728.696,64.505,735.745,71.554,735.745,80.25z"/>
	<g>
		<path fill="#C9CDCF" d="M253.405,64.229l-12.518-18.508c-0.425-0.628-1.35-0.628-1.774,0l-12.518,18.508
			c-0.481,0.711,0.029,1.671,0.887,1.671h7.327c0.592,0,1.071,0.48,1.071,1.071v29.551c0,0.592,0.48,1.071,1.071,1.071h6.096
			c0.592,0,1.071-0.48,1.071-1.071V66.971c0-0.592,0.48-1.071,1.071-1.071h7.327C253.377,65.9,253.886,64.94,253.405,64.229z"/>
		<path fill="#C9CDCF" d="M230.04,73.325l0,28.553c0,0.592,0.48,1.071,1.071,1.071h17.779c0.592,0,1.071-0.48,1.071-1.071l0-28.553
			c0-0.592,0.48-1.071,1.071-1.071h12.073c0.592,0,1.071,0.48,1.071,1.071v40.854c0,0.592-0.48,1.071-1.071,1.071h-46.21
			c-0.592,0-1.071-0.48-1.071-1.071V73.325c0-0.592,0.48-1.071,1.071-1.071h12.073C229.56,72.254,230.04,72.733,230.04,73.325z"/>
	</g>
	<path fill="#C9CDCF" d="M560,45.25c-12.988,0-23.516,10.529-23.516,23.516c0,18.657,18.593,41.321,22.714,46.115
		c0.422,0.491,1.183,0.491,1.605,0c4.121-4.794,22.714-27.459,22.714-46.115C583.516,55.779,572.988,45.25,560,45.25z M560,79.651
		c-6.585,0-11.923-5.338-11.923-11.923S553.415,55.804,560,55.804s11.923,5.338,11.923,11.923S566.585,79.651,560,79.651z"/>
	<g>
		<path fill="#C9CDCF" d="M388.194,102.102c0,2.667,0.765,4.602,2.295,5.805c1.353,1.063,3.262,1.677,5.729,1.841
			c0.56,0.037,0.998,0.503,0.998,1.064v3.367c0,0.613-0.517,1.098-1.129,1.07c-4.425-0.203-7.893-1.33-10.402-3.381
			c-2.72-2.223-4.079-5.348-4.079-9.374V90.61c0-2.719-0.824-4.66-2.471-5.824c-1.464-1.034-3.516-1.609-6.157-1.724
			c-0.57-0.025-1.02-0.495-1.02-1.065v-3.455c0-0.568,0.447-1.036,1.014-1.066c2.878-0.153,4.998-0.769,6.359-1.849
			c1.516-1.203,2.275-3.06,2.275-5.57V58.055c0-4.053,1.412-7.203,4.236-9.453c2.599-2.069,6.016-3.186,10.254-3.352
			c0.609-0.024,1.121,0.461,1.121,1.071v3.346c0,0.557-0.43,1.021-0.986,1.063c-5.357,0.407-8.036,2.993-8.036,7.755v11.57
			c0,5.622-2.916,8.943-8.746,9.963v0.471c5.831,1.02,8.746,4.341,8.746,9.962V102.102z"/>
		<path fill="#C9CDCF" d="M420.474,80.02c-5.831-1.02-8.747-4.34-8.747-9.963v-11.57c0-4.759-2.64-7.344-7.919-7.755
			c-0.555-0.043-0.984-0.507-0.984-1.063v-3.347c0-0.61,0.512-1.094,1.121-1.071c4.281,0.166,7.692,1.296,10.234,3.391
			c2.758,2.275,4.138,5.412,4.138,9.413v12.002c0,2.537,0.771,4.4,2.314,5.589c1.385,1.068,3.518,1.678,6.398,1.829
			c0.567,0.03,1.015,0.498,1.015,1.066v3.454c0,0.57-0.451,1.042-1.021,1.066c-2.69,0.114-4.768,0.689-6.235,1.725
			c-1.648,1.164-2.471,3.105-2.471,5.824v11.884c0,4.001-1.34,7.119-4.02,9.355c-2.474,2.063-5.921,3.196-10.343,3.4
			c-0.613,0.028-1.13-0.457-1.13-1.07v-3.368c0-0.561,0.437-1.025,0.996-1.064c2.417-0.166,4.294-0.779,5.632-1.84
			c1.516-1.203,2.275-3.138,2.275-5.805V90.453c0-2.981,0.719-5.256,2.158-6.824c1.437-1.569,3.634-2.615,6.589-3.138V80.02z"/>
	</g>
	<path fill="#11242F" d="M80.949,205.84l10.535,21.347c0.154,0.312,0.452,0.529,0.797,0.579l23.558,3.423
		c0.868,0.126,1.215,1.193,0.587,1.806l-17.046,16.616c-0.249,0.243-0.363,0.594-0.304,0.937l4.024,23.462
		c0.148,0.865-0.759,1.524-1.536,1.116l-21.071-11.077c-0.308-0.162-0.677-0.162-0.985,0l-21.071,11.077
		c-0.777,0.408-1.684-0.251-1.536-1.116l4.024-23.462c0.059-0.343-0.055-0.694-0.304-0.937l-17.046-16.616
		c-0.628-0.612-0.282-1.679,0.587-1.806l23.558-3.423c0.345-0.05,0.643-0.267,0.797-0.579l10.535-21.347
		C79.439,205.053,80.561,205.053,80.949,205.84z"/>
	<path fill="#11242F" d="M747.886,240.25c0-1.871-0.19-3.696-0.543-5.463c-0.082-0.411,0.075-0.832,0.414-1.078l5.476-3.986
		c0.442-0.322,0.57-0.925,0.297-1.398l-6.437-11.149c-0.273-0.473-0.86-0.664-1.359-0.442l-6.192,2.75
		c-0.383,0.17-0.827,0.095-1.142-0.182c-2.733-2.402-5.937-4.281-9.459-5.473c-0.397-0.134-0.684-0.481-0.728-0.898l-0.713-6.725
		c-0.058-0.544-0.516-0.956-1.063-0.956h-12.874c-0.547,0-1.005,0.412-1.063,0.956l-0.713,6.725
		c-0.044,0.417-0.331,0.763-0.728,0.898c-3.522,1.192-6.726,3.07-9.459,5.473c-0.315,0.277-0.758,0.352-1.142,0.182l-6.192-2.75
		c-0.5-0.222-1.086-0.031-1.359,0.442l-6.437,11.149c-0.273,0.473-0.145,1.077,0.297,1.398l5.476,3.986
		c0.339,0.247,0.496,0.667,0.414,1.078c-0.353,1.767-0.543,3.592-0.543,5.463c0,1.871,0.19,3.696,0.543,5.463
		c0.082,0.411-0.075,0.832-0.414,1.078l-5.476,3.986c-0.442,0.322-0.57,0.925-0.297,1.398l6.437,11.149
		c0.273,0.473,0.86,0.664,1.359,0.442l6.192-2.75c0.383-0.17,0.827-0.095,1.142,0.182c2.732,2.403,5.937,4.281,9.459,5.473
		c0.397,0.134,0.684,0.481,0.728,0.898l0.713,6.725c0.058,0.544,0.516,0.956,1.063,0.956h12.874c0.547,0,1.005-0.412,1.063-0.956
		l0.713-6.725c0.044-0.417,0.331-0.763,0.728-0.898c3.522-1.192,6.726-3.07,9.459-5.473c0.315-0.277,0.758-0.352,1.142-0.182
		l6.192,2.75c0.5,0.222,1.086,0.031,1.359-0.442l6.437-11.149c0.273-0.473,0.145-1.077-0.297-1.398l-5.476-3.986
		c-0.339-0.247-0.496-0.667-0.414-1.078C747.696,243.946,747.886,242.121,747.886,240.25z M735.745,240.25
		c0,8.696-7.049,15.745-15.745,15.745c-8.696,0-15.745-7.049-15.745-15.745c0-8.696,7.049-15.745,15.745-15.745
		C728.696,224.505,735.745,231.554,735.745,240.25z"/>
	<g>
		<path fill="#11242F" d="M253.405,224.229l-12.518-18.508c-0.425-0.628-1.35-0.628-1.774,0l-12.518,18.508
			c-0.481,0.711,0.029,1.671,0.887,1.671h7.327c0.592,0,1.071,0.48,1.071,1.071v29.551c0,0.592,0.48,1.071,1.071,1.071h6.096
			c0.592,0,1.071-0.48,1.071-1.071v-29.551c0-0.592,0.48-1.071,1.071-1.071h7.327C253.377,225.9,253.886,224.94,253.405,224.229z"/>
		<path fill="#11242F" d="M230.04,233.325l0,28.553c0,0.592,0.48,1.071,1.071,1.071h17.779c0.592,0,1.071-0.48,1.071-1.071l0-28.553
			c0-0.592,0.48-1.071,1.071-1.071h12.073c0.592,0,1.071,0.48,1.071,1.071v40.854c0,0.592-0.48,1.071-1.071,1.071h-46.21
			c-0.592,0-1.071-0.48-1.071-1.071v-40.854c0-0.592,0.48-1.071,1.071-1.071h12.073C229.56,232.254,230.04,232.733,230.04,233.325z"
			/>
	</g>
	<path fill="#11242F" d="M560,205.25c-12.988,0-23.516,10.529-23.516,23.516c0,18.656,18.593,41.321,22.714,46.115
		c0.422,0.491,1.183,0.491,1.605,0c4.121-4.794,22.714-27.459,22.714-46.115C583.516,215.779,572.988,205.25,560,205.25z
		 M560,239.651c-6.585,0-11.923-5.338-11.923-11.923c0-6.585,5.338-11.923,11.923-11.923s11.923,5.338,11.923,11.923
		C571.923,234.312,566.585,239.651,560,239.651z"/>
	<g>
		<path fill="#11242F" d="M388.194,262.102c0,2.667,0.765,4.602,2.295,5.805c1.353,1.063,3.262,1.677,5.729,1.841
			c0.56,0.037,0.998,0.503,0.998,1.064v3.367c0,0.613-0.517,1.098-1.129,1.07c-4.425-0.203-7.893-1.33-10.402-3.381
			c-2.72-2.223-4.079-5.348-4.079-9.374V250.61c0-2.719-0.824-4.66-2.471-5.824c-1.464-1.034-3.516-1.609-6.157-1.724
			c-0.57-0.025-1.02-0.495-1.02-1.065v-3.455c0-0.568,0.447-1.036,1.014-1.066c2.878-0.153,4.998-0.769,6.359-1.849
			c1.516-1.203,2.275-3.06,2.275-5.57v-12.002c0-4.053,1.412-7.203,4.236-9.453c2.599-2.069,6.016-3.186,10.254-3.352
			c0.609-0.024,1.121,0.461,1.121,1.071v3.346c0,0.557-0.43,1.021-0.986,1.063c-5.357,0.407-8.036,2.993-8.036,7.755v11.57
			c0,5.622-2.916,8.943-8.746,9.963v0.471c5.831,1.02,8.746,4.341,8.746,9.962V262.102z"/>
		<path fill="#11242F" d="M420.474,240.02c-5.831-1.02-8.747-4.34-8.747-9.963v-11.57c0-4.759-2.64-7.344-7.919-7.755
			c-0.555-0.043-0.984-0.507-0.984-1.063v-3.347c0-0.61,0.512-1.094,1.121-1.071c4.281,0.166,7.692,1.296,10.234,3.391
			c2.758,2.275,4.138,5.412,4.138,9.413v12.002c0,2.537,0.771,4.4,2.314,5.589c1.385,1.068,3.518,1.678,6.398,1.829
			c0.567,0.03,1.015,0.498,1.015,1.066v3.454c0,0.57-0.451,1.042-1.021,1.066c-2.69,0.114-4.768,0.689-6.235,1.725
			c-1.648,1.164-2.471,3.105-2.471,5.824v11.884c0,4.001-1.34,7.119-4.02,9.355c-2.474,2.063-5.921,3.196-10.343,3.4
			c-0.613,0.028-1.13-0.457-1.13-1.07v-3.368c0-0.561,0.437-1.025,0.996-1.064c2.417-0.166,4.294-0.779,5.632-1.84
			c1.516-1.203,2.275-3.138,2.275-5.805v-11.649c0-2.981,0.719-5.256,2.158-6.824c1.437-1.569,3.634-2.615,6.589-3.138V240.02z"/>
	</g>
</g>
<g id="Layer_2" display="none">
	<rect x="0" y="160.25" display="inline" fill="#FFCC00" width="160" height="160"/>
	<rect x="-160" y="0.25" display="inline" fill="none" stroke="#FFCC00" stroke-miterlimit="10" width="1121.357" height="160"/>
	<rect x="160" y="160.25" display="inline" fill="#FFCC00" width="160" height="160"/>
	<rect x="320" y="160.25" display="inline" fill="#FFCC00" width="160" height="160"/>
	<rect x="480" y="160.25" display="inline" fill="#FFCC00" width="160" height="160"/>
	<rect x="640" y="160.25" display="inline" fill="#FFCC00" width="160" height="160"/>
	<rect x="-304.167" y="-0.25" display="inline" fill="#FFCC00" width="1409.691" height="30"/>
	<rect x="-304.167" y="130.75" display="inline" fill="#FFCC00" width="1409.691" height="30"/>
</g>
</svg>
